<?xml version="1.0" standalone="no"?>
<!DOCTYPE svg PUBLIC "-//W3C//DTD SVG 20010904//EN"
 "http://www.w3.org/TR/2001/REC-SVG-20010904/DTD/svg10.dtd">
<svg version="1.0" xmlns="http://www.w3.org/2000/svg"
 width="1890.000000pt" height="1890.000000pt" viewBox="0 0 1890.000000 1890.000000"
 preserveAspectRatio="xMidYMid meet">
<metadata>
Created by potrace 1.11, written by Peter Selinger 2001-2013
</metadata>
<g transform="translate(0.000000,1890.000000) scale(0.100000,-0.100000)"
fill="#000000" stroke="none">
<path d="M0 9450 l0 -9450 9450 0 9450 0 0 9450 0 9450 -9450 0 -9450 0 0
-9450z m10285 8335 c517 0 1135 4 1373 8 l432 8 0 -161 0 -160 -222 0 c-381 0
-699 -22 -875 -60 -79 -17 -149 -72 -192 -150 l-36 -65 0 -3015 0 -3015 25
-43 c13 -24 44 -56 67 -72 84 -55 90 -55 823 -55 588 0 692 3 803 18 250 34
471 89 635 157 387 162 695 495 852 920 69 188 152 611 210 1075 12 94 25 174
29 178 4 4 64 6 132 5 103 -3 124 -6 122 -18 -1 -8 -64 -610 -140 -1337 l-138
-1323 -2717 0 -2718 0 0 159 0 158 313 7 c565 13 675 47 738 229 17 50 18 194
18 3007 0 2813 -1 2957 -18 3007 -63 182 -173 216 -738 229 l-313 7 0 159 0
159 298 -8 c163 -4 720 -8 1237 -8z m-2460 -87 c3 -29 46 -534 95 -1123 49
-588 92 -1094 95 -1122 l6 -53 -134 0 -134 0 -22 258 c-35 412 -60 577 -122
826 -101 402 -191 548 -437 713 -147 98 -282 144 -532 182 -231 35 -427 43
-885 39 -485 -5 -505 -8 -576 -79 -69 -69 -64 164 -64 -3094 l0 -2950 21 -46
c28 -60 87 -125 137 -150 48 -25 137 -44 299 -65 90 -12 248 -17 586 -21 l462
-5 0 -166 0 -165 -222 7 c-1059 32 -2440 32 -3510 0 l-228 -7 0 166 0 165 458
5 c736 7 908 40 1007 190 19 29 39 72 45 97 13 55 9 5908 -4 5954 -5 16 -30
50 -55 77 -82 84 -82 84 -681 84 -437 0 -537 -3 -659 -18 -336 -42 -489 -90
-663 -207 -335 -224 -453 -548 -553 -1519 -14 -134 -25 -250 -25 -257 0 -11
-27 -14 -135 -14 l-135 0 5 38 c3 20 50 545 105 1165 55 621 103 1133 106
1138 3 5 1306 9 3174 9 l3169 0 6 -52z m510 -9268 c244 -23 560 -91 761 -165
145 -53 384 -173 504 -253 149 -99 248 -183 375 -313 267 -275 423 -551 497
-880 20 -91 23 -131 23 -314 0 -234 -10 -300 -70 -481 -89 -267 -279 -550
-501 -746 -329 -291 -671 -475 -1078 -578 -172 -44 -351 -75 -511 -90 -65 -6
-489 -10 -1037 -10 l-928 0 0 -1324 c0 -1312 0 -1324 21 -1391 29 -95 90 -156
185 -185 123 -37 174 -41 522 -47 l342 -5 0 -165 0 -166 -177 7 c-841 32
-1878 32 -2716 0 l-178 -7 3 164 3 164 340 6 c356 6 429 14 547 58 70 27 126
86 159 167 l24 59 3 2890 c2 1942 -1 2916 -8 2968 -19 145 -85 232 -205 270
-105 33 -160 38 -507 49 l-358 12 0 158 0 158 1928 0 c1224 0 1967 -4 2037
-10z m4630 -5 c517 0 1135 4 1373 8 l432 8 0 -161 0 -160 -222 0 c-381 0 -699
-22 -875 -60 -79 -17 -149 -72 -192 -150 l-36 -65 0 -3015 0 -3015 25 -43 c13
-24 44 -56 67 -72 84 -55 90 -55 823 -55 588 0 692 3 803 18 250 34 471 89
635 157 387 162 695 495 852 920 69 188 152 611 210 1075 12 94 25 174 29 178
4 4 64 6 132 5 103 -3 124 -6 122 -18 -1 -8 -64 -610 -140 -1337 l-138 -1323
-2717 0 -2718 0 0 159 0 158 313 7 c565 13 675 47 738 229 17 50 18 194 18
3007 0 2813 -1 2957 -18 3007 -63 182 -173 216 -738 229 l-313 7 0 159 0 159
298 -8 c163 -4 720 -8 1237 -8z"/>
<path d="M6618 8110 c-159 -13 -237 -67 -258 -179 -6 -35 -10 -576 -10 -1553
l0 -1499 838 4 c806 3 842 4 976 26 338 54 525 118 716 246 241 161 397 366
465 610 60 216 92 607 75 913 -30 562 -99 764 -340 1003 -235 232 -476 341
-916 410 -131 21 -175 22 -794 24 -360 2 -699 -1 -752 -5z"/>
</g>
</svg>
